# xmcd
#
# Track frame offsets: 
#        150
#        18477
#        42865
#        62402
#        81642
#        96745
#        115625
#        122777
#        140312
#        157507
#
# Disc length: 2262 seconds
#
# Revision: 3
# Processed by: cddbd v1.5.2PL0 Copyright (c) Steve Scherf et al.
# Submitted via: ExactAudioCopy v0.99pb3
#
DISCID=7c08d40a
DTITLE=Hubert Sumlin - Heart and Soul
DYEAR=1989
DGENRE=Blues
TTITLE0=Your Foxy Self
TTITLE1=Chunky
TTITLE2=Sitting OnTop Of The World
TTITLE3=I Want You
TTITLE4=Bring Your Love To Me
TTITLE5=The Red Rooster
TTITLE6=Juke
TTITLE7=No Time For Me
TTITLE8=Got The Blues
TTITLE9=Old Friends
EXTD=BP73389\n\nHubert Sumlin:  lead guitar and vocals\nJames Cotton: 
EXTD=harmonica\nLittle Mike:  piano\nBrad Vickers:  bass\nTony O:  rh
EXTD=ythm guitar\nPete DeCoste:  drums\n\nSubmitted 6/27/98\n[Jmccoy@e
EXTD=fn.org]
EXTT0=
EXTT1=
EXTT2=
EXTT3=
EXTT4=
EXTT5=
EXTT6=
EXTT7=
EXTT8=
EXTT9=
PLAYORDER=
